<svg width="512" height="512" viewBox="0 0 512 512" fill="none" xmlns="http://www.w3.org/2000/svg">
  <rect width="512" height="512" fill="#193435"/>
  <g transform="translate(28 116) scale(2.05405)" fill="#F0F0E5">
    <path d="M30.9569 87.5047C43.3944 87.5047 55.8867 87.5047 68.3243 87.5047C63.5027 97.8607 58.6263 108.217 53.8047 118.573C35.8881 118.573 17.9166 118.573 0 118.573C0 79.0666 0 39.5606 0 0.109375C36.3812 0.109375 72.8171 0.109375 109.198 0.109375C104.377 10.4653 99.5551 20.7665 94.6787 31.1224C73.4198 31.1224 52.161 31.1224 30.9021 31.1224C30.9021 35.2867 30.9021 39.451 30.9021 43.6701H88.8161C83.9945 54.026 79.1181 64.382 74.2965 74.7379C59.8317 74.7379 45.3669 74.7379 30.9021 74.7379C30.9021 79.0118 30.9021 83.3404 30.9021 87.6143L30.9569 87.5047Z"/>
    <path d="M136.594 135.835C124.266 135.835 111.938 135.944 99.6096 135.999C102.294 130.136 104.979 124.273 107.609 118.41C91.7745 118.41 75.9947 118.52 60.1602 118.575C75.9399 84.7672 91.7197 51.0145 107.554 17.207C119.006 17.207 130.402 17.207 141.853 17.207C130.895 40.6586 119.992 64.1101 109.034 87.5617C111.171 87.5617 113.307 87.5617 115.499 87.5069C119.389 79.1783 123.279 70.7949 127.169 62.4663C141.744 62.4663 156.373 62.4663 170.947 62.4663"/>
    <path d="M151.08 17.207C174.53 17.207 197.926 17.3166 221.377 17.3714V48.3844C207.624 77.5345 193.926 106.685 180.174 135.889H143.3C156.614 107.342 169.928 78.8495 183.242 50.3022C167.408 50.3022 151.518 50.3022 135.684 50.3022C140.834 39.2887 145.984 28.2205 151.135 17.207H151.08Z"/>
    <path d="M221.174 11.397H110.277C112.031 7.61627 113.839 3.83553 115.592 0H221.174C221.174 3.78074 221.174 7.61627 221.174 11.397Z"/>
    <path d="M0 124.328C32.7102 124.328 65.4752 124.328 98.1854 124.328C96.432 128.164 94.6239 131.999 92.8706 135.835C61.9138 135.835 30.9569 135.835 0.0547943 135.835C0.0547943 131.999 0.0547943 128.164 0.0547943 124.328H0Z"/>
  </g>
</svg>
